<?xml version="1.0" standalone="no"?>
<!DOCTYPE svg PUBLIC "-//W3C//DTD SVG 20010904//EN"
 "http://www.w3.org/TR/2001/REC-SVG-20010904/DTD/svg10.dtd">
<svg version="1.0" xmlns="http://www.w3.org/2000/svg"
 width="512.000000pt" height="512.000000pt" viewBox="0 0 512.000000 512.000000"
 preserveAspectRatio="xMidYMid meet">

<g transform="translate(0.000000,512.000000) scale(0.100000,-0.100000)"
fill="#000000" stroke="none">
<path d="M4249 5027 c-75 -28 -91 -50 -317 -426 -122 -203 -229 -386 -237
-405 -41 -98 13 -217 117 -260 23 -10 67 -16 113 -16 l75 0 0 -560 0 -560 80
0 80 0 0 640 0 640 -144 0 c-118 0 -147 3 -160 16 -9 8 -16 21 -16 29 0 27
434 737 457 748 16 7 30 7 46 0 23 -11 457 -721 457 -748 0 -8 -7 -21 -16 -29
-13 -13 -42 -16 -160 -16 l-144 0 0 -720 0 -720 80 0 80 0 0 640 0 640 75 0
c116 0 186 39 226 125 25 54 23 110 -5 170 -13 28 -121 210 -238 405 -195 323
-219 358 -260 383 -54 34 -135 44 -189 24z"/>
<path d="M1849 4947 c-75 -28 -91 -50 -317 -426 -122 -203 -229 -386 -237
-405 -41 -98 13 -217 117 -260 23 -10 67 -16 113 -16 l75 0 0 -360 0 -360 80
0 80 0 0 440 0 440 -144 0 c-118 0 -147 3 -160 16 -9 8 -16 21 -16 29 0 27
434 737 457 748 16 7 30 7 46 0 23 -11 457 -721 457 -748 0 -8 -7 -21 -16 -29
-13 -13 -42 -16 -160 -16 l-144 0 0 -440 0 -440 80 0 80 0 0 360 0 360 75 0
c116 0 186 39 226 125 25 54 23 110 -5 170 -13 28 -121 210 -238 405 -195 323
-219 358 -260 383 -54 34 -135 44 -189 24z"/>
<path d="M569 4387 c-75 -28 -91 -50 -317 -426 -122 -203 -229 -386 -237 -405
-41 -98 13 -217 117 -260 23 -10 67 -16 113 -16 l75 0 0 -520 0 -520 80 0 80
0 0 600 0 600 -144 0 c-118 0 -147 3 -160 16 -9 8 -16 21 -16 29 0 27 434 737
457 748 16 7 30 7 46 0 23 -11 457 -721 457 -748 0 -8 -7 -21 -16 -29 -13 -13
-42 -16 -160 -16 l-144 0 0 -400 0 -400 80 0 80 0 0 320 0 320 75 0 c116 0
186 39 226 125 25 54 23 110 -5 170 -13 28 -121 210 -238 405 -195 323 -219
358 -260 383 -54 34 -135 44 -189 24z"/>
<path d="M3129 4387 c-75 -28 -91 -50 -317 -426 -122 -203 -229 -386 -237
-405 -41 -98 13 -217 117 -260 23 -10 67 -16 113 -16 l75 0 0 -160 0 -160
-456 0 c-329 0 -468 -3 -498 -12 -55 -16 -138 -99 -154 -154 -7 -24 -12 -100
-12 -178 l0 -136 -456 0 c-329 0 -468 -3 -498 -12 -55 -16 -138 -99 -154 -154
-17 -60 -17 -2008 0 -2068 16 -55 99 -138 154 -154 60 -17 3288 -17 3348 0 55
16 138 99 154 154 17 59 17 2009 0 2066 -6 22 -31 62 -55 88 -72 81 -67 80
-595 80 l-458 0 0 136 c0 76 -5 154 -12 176 -14 48 -76 121 -118 138 l-30 12
0 249 0 249 -144 0 c-118 0 -147 3 -160 16 -9 8 -16 21 -16 29 0 27 434 737
457 748 16 7 30 7 46 0 23 -11 457 -721 457 -748 0 -8 -7 -21 -16 -29 -13 -13
-42 -16 -160 -16 l-144 0 0 -440 0 -440 80 0 80 0 0 360 0 360 75 0 c116 0
186 39 226 125 25 54 23 110 -5 170 -13 28 -121 210 -238 405 -195 323 -219
358 -260 383 -54 34 -135 44 -189 24z m-114 -1612 c24 -23 25 -29 25 -160 l0
-135 -560 0 -560 0 0 135 c0 131 1 137 25 160 l24 25 511 0 511 0 24 -25z
m1122 -481 c25 -25 26 -29 20 -112 -25 -341 -239 -634 -558 -761 -121 -49
-220 -61 -485 -61 l-234 0 0 -80 0 -80 234 0 c129 0 270 5 312 11 148 20 306
82 439 172 77 52 205 175 252 244 20 29 38 53 40 53 1 0 3 -313 3 -695 l0
-696 -25 -24 -24 -25 -1631 0 -1631 0 -24 25 -25 24 0 696 c0 382 2 695 3 695
2 0 21 -24 41 -54 47 -68 182 -199 256 -247 75 -50 182 -102 260 -127 125 -41
228 -52 481 -52 l239 0 0 79 0 79 -272 4 c-239 4 -282 7 -348 26 -338 95 -587
364 -645 697 -22 131 -20 181 10 210 l24 25 1631 0 1631 0 26 -26z"/>
<path d="M2400 1755 l0 -85 -37 -19 c-99 -50 -146 -169 -109 -274 26 -71 60
-102 176 -161 107 -55 130 -75 130 -114 0 -30 -42 -62 -81 -62 -54 0 -79 32
-79 103 l0 57 -80 0 -80 0 0 -67 c1 -106 43 -183 123 -224 l37 -19 0 -85 0
-85 80 0 80 0 0 85 0 85 38 19 c98 50 145 169 108 274 -26 71 -60 102 -176
161 -107 55 -130 75 -130 114 0 30 42 62 81 62 38 0 79 -33 79 -63 0 -15 12
-17 80 -17 l80 0 0 28 c0 34 -34 109 -63 140 -12 13 -39 33 -59 43 l-38 19 0
85 0 85 -80 0 -80 0 0 -85z"/>
<path d="M1055 866 c-41 -18 -83 -69 -91 -110 -3 -19 -4 -84 -2 -144 3 -120
12 -142 72 -186 26 -20 41 -21 246 -21 205 0 220 1 246 21 64 47 69 63 69 214
0 151 -5 167 -69 214 -25 19 -43 21 -234 23 -157 2 -214 0 -237 -11z m385
-226 l0 -80 -160 0 -160 0 0 80 0 80 160 0 160 0 0 -80z"/>
<path d="M3200 480 l0 -80 80 0 80 0 0 80 0 80 -80 0 -80 0 0 -80z"/>
<path d="M3520 480 l0 -80 80 0 80 0 0 80 0 80 -80 0 -80 0 0 -80z"/>
<path d="M3840 480 l0 -80 80 0 80 0 0 80 0 80 -80 0 -80 0 0 -80z"/>
<path d="M4480 2400 l0 -80 80 0 80 0 0 80 0 80 -80 0 -80 0 0 -80z"/>
<path d="M4480 2080 l0 -80 80 0 80 0 0 80 0 80 -80 0 -80 0 0 -80z"/>
<path d="M320 2000 l0 -80 80 0 80 0 0 80 0 80 -80 0 -80 0 0 -80z"/>
<path d="M320 1680 l0 -80 80 0 80 0 0 80 0 80 -80 0 -80 0 0 -80z"/>
</g>
</svg>
