<?xml version="1.0" standalone="no"?>
<!DOCTYPE svg PUBLIC "-//W3C//DTD SVG 20010904//EN"
 "http://www.w3.org/TR/2001/REC-SVG-20010904/DTD/svg10.dtd">
<svg version="1.0" xmlns="http://www.w3.org/2000/svg"
 width="512.000000pt" height="512.000000pt" viewBox="0 0 512.000000 512.000000"
 preserveAspectRatio="xMidYMid meet">

<g transform="translate(0.000000,512.000000) scale(0.100000,-0.100000)"
fill="#000000" stroke="none">
<path d="M1135 3986 c-41 -18 -83 -69 -90 -109 -3 -18 -4 -622 -3 -1344 3
-1307 3 -1312 24 -1339 39 -53 71 -69 134 -69 63 0 95 16 134 69 21 27 21 30
21 1365 l0 1338 -29 37 c-46 61 -123 82 -191 52z"/>
<path d="M3855 3986 c-41 -18 -83 -69 -90 -109 -3 -18 -4 -622 -3 -1344 3
-1307 3 -1312 24 -1339 39 -53 71 -69 134 -69 63 0 95 16 134 69 21 27 21 30
21 1365 l0 1338 -29 37 c-46 61 -123 82 -191 52z"/>
<path d="M655 3746 c-41 -18 -83 -69 -90 -109 -3 -18 -4 -514 -3 -1104 3
-1064 3 -1072 24 -1099 39 -53 71 -69 134 -69 63 0 95 16 134 69 21 27 21 32
21 1126 0 1094 0 1099 -21 1126 -11 15 -32 37 -46 47 -33 25 -113 32 -153 13z"/>
<path d="M4335 3746 c-41 -18 -83 -69 -90 -109 -3 -18 -4 -514 -3 -1104 3
-1064 3 -1072 24 -1099 39 -53 71 -69 134 -69 63 0 95 16 134 69 21 27 21 32
21 1126 0 1094 0 1099 -21 1126 -11 15 -32 37 -46 47 -33 25 -113 32 -153 13z"/>
<path d="M335 2706 c-124 -54 -123 -240 2 -292 64 -27 63 -31 63 146 0 177 1
175 -65 146z"/>
<path d="M1520 2560 l0 -160 1040 0 1040 0 0 160 0 160 -1040 0 -1040 0 0
-160z"/>
<path d="M4720 2560 l0 -162 33 6 c38 7 73 31 101 70 29 39 29 133 0 172 -28
39 -63 63 -101 70 l-33 7 0 -163z"/>
</g>
</svg>
