<?xml version="1.0" standalone="no"?>
<!DOCTYPE svg PUBLIC "-//W3C//DTD SVG 20010904//EN"
 "http://www.w3.org/TR/2001/REC-SVG-20010904/DTD/svg10.dtd">
<svg version="1.0" xmlns="http://www.w3.org/2000/svg"
 width="512.000000pt" height="512.000000pt" viewBox="0 0 512.000000 512.000000"
 preserveAspectRatio="xMidYMid meet">

<g transform="translate(0.000000,512.000000) scale(0.100000,-0.100000)"
fill="#000000" stroke="none">
<path d="M2321 5110 c-497 -48 -990 -251 -1376 -565 -114 -92 -294 -274 -384
-387 -229 -287 -417 -675 -495 -1023 -49 -218 -60 -325 -60 -575 0 -250 11
-357 60 -575 79 -355 272 -749 509 -1040 92 -114 274 -294 387 -384 287 -229
675 -417 1023 -495 218 -49 325 -60 575 -60 250 0 357 11 575 60 261 58 603
204 828 353 389 259 688 599 893 1016 125 255 196 484 241 775 24 161 24 539
0 700 -45 291 -116 520 -241 775 -134 272 -283 480 -498 692 -211 209 -404
346 -673 478 -252 124 -486 197 -765 240 -126 19 -468 27 -599 15z m549 -446
c448 -66 863 -276 1190 -604 329 -328 533 -731 606 -1195 20 -130 23 -433 5
-565 -47 -344 -161 -644 -354 -932 -40 -60 -74 -108 -77 -108 -3 0 -219 214
-480 475 l-475 475 248 0 247 0 0 370 0 370 -621 0 -621 0 -645 643 -646 643
124 83 c449 300 978 422 1499 345z m-1520 -1259 l455 -455 -558 0 -557 0 0
-370 0 -370 926 0 926 0 662 -656 c363 -361 662 -660 664 -664 2 -4 -55 -47
-127 -94 -278 -186 -592 -304 -921 -347 -140 -18 -432 -15 -565 5 -464 73
-866 277 -1195 606 -329 329 -533 731 -606 1195 -20 132 -23 424 -5 565 34
256 111 499 231 728 59 112 190 312 205 312 6 0 215 -205 465 -455z"/>
<path d="M2177 4465 c-55 -331 199 -574 723 -690 141 -31 225 -43 413 -61 507
-46 819 -203 957 -480 25 -51 28 -54 23 -24 -36 213 -142 416 -284 545 -106
95 -254 177 -382 211 -151 40 -190 45 -447 54 -146 4 -314 16 -373 25 -229 34
-390 100 -493 200 -71 69 -92 105 -114 195 l-16 65 -7 -40z"/>
<path d="M2317 3915 c-20 -118 17 -205 123 -289 156 -123 414 -195 808 -226
400 -31 667 -143 773 -324 l30 -51 -7 40 c-4 22 -19 69 -34 105 -65 162 -197
290 -371 361 -132 54 -216 69 -449 79 -401 19 -524 37 -658 100 -114 53 -168
110 -196 202 l-12 43 -7 -40z"/>
<path d="M3897 2944 c-4 -4 -7 -171 -7 -371 l0 -363 120 0 120 0 -2 368 -3
367 -111 3 c-60 1 -113 -1 -117 -4z"/>
<path d="M4240 2580 l0 -370 115 0 115 0 0 370 0 370 -115 0 -115 0 0 -370z"/>
</g>
</svg>
