<?xml version="1.0" standalone="no"?>
<!DOCTYPE svg PUBLIC "-//W3C//DTD SVG 20010904//EN"
 "http://www.w3.org/TR/2001/REC-SVG-20010904/DTD/svg10.dtd">
<svg version="1.0" xmlns="http://www.w3.org/2000/svg"
 width="512.000000pt" height="512.000000pt" viewBox="0 0 512.000000 512.000000"
 preserveAspectRatio="xMidYMid meet">

<g transform="translate(0.000000,512.000000) scale(0.100000,-0.100000)"
fill="#000000" stroke="none">
<path d="M1625 5106 c-69 -18 -97 -30 -159 -70 -183 -117 -273 -343 -220 -550
37 -142 140 -270 265 -329 45 -21 71 -39 74 -52 3 -11 63 -400 135 -864 141
-915 138 -900 209 -948 18 -13 50 -27 70 -33 23 -6 315 -10 787 -10 l751 0
233 -747 c128 -412 240 -761 248 -777 19 -38 59 -75 101 -93 72 -31 110 -21
416 101 158 63 299 126 312 138 71 66 84 185 29 268 -31 48 -109 90 -166 90
-20 0 -110 -30 -208 -69 -114 -46 -175 -65 -178 -58 -2 7 -105 335 -228 729
-163 525 -230 727 -249 752 -15 19 -46 43 -70 55 -43 21 -51 21 -798 21 l-755
0 -28 183 c-15 100 -30 192 -33 204 l-5 22 434 3 435 3 48 30 c132 82 126 278
-10 353 -26 15 -88 18 -500 22 l-469 5 -53 340 c-43 281 -50 341 -39 347 87
49 175 157 217 267 27 69 36 196 19 274 -28 135 -130 273 -255 342 -106 60
-247 79 -360 51z"/>
<path d="M1119 3267 c-19 -7 -73 -38 -120 -69 -424 -277 -698 -703 -774 -1206
-20 -130 -20 -380 0 -507 60 -378 225 -705 490 -970 270 -269 599 -436 980
-496 125 -20 420 -17 540 5 208 38 400 107 575 208 151 87 240 156 370 287
136 138 227 262 312 429 56 110 63 128 62 180 -1 66 -19 107 -68 149 -71 63
-174 70 -249 16 -33 -23 -54 -52 -97 -135 -74 -143 -139 -237 -234 -336 -186
-194 -420 -325 -686 -383 -137 -31 -389 -33 -519 -6 -274 59 -493 173 -679
354 -269 264 -404 584 -403 963 0 268 73 504 229 740 73 112 241 278 357 354
123 80 153 110 171 173 18 64 12 107 -27 167 -46 74 -152 112 -230 83z"/>
</g>
</svg>
