<?xml version="1.0" standalone="no"?>
<!DOCTYPE svg PUBLIC "-//W3C//DTD SVG 20010904//EN"
 "http://www.w3.org/TR/2001/REC-SVG-20010904/DTD/svg10.dtd">
<svg version="1.0" xmlns="http://www.w3.org/2000/svg"
 width="512.000000pt" height="512.000000pt" viewBox="0 0 512.000000 512.000000"
 preserveAspectRatio="xMidYMid meet">

<g transform="translate(0.000000,512.000000) scale(0.100000,-0.100000)"
fill="#000000" stroke="none">
<path d="M3373 5106 c-102 -33 -176 -97 -222 -196 l-26 -55 0 -885 0 -885 26
-56 c37 -79 90 -133 167 -171 l66 -33 293 -3 293 -3 0 -1260 0 -1259 -140 0
c-121 0 -146 -3 -180 -20 -45 -23 -80 -80 -80 -130 0 -50 35 -107 80 -130 37
-19 58 -20 470 -20 412 0 433 1 470 20 45 23 80 80 80 130 0 50 -35 107 -80
130 -34 17 -59 20 -180 20 l-140 0 0 1259 0 1260 293 3 293 3 66 33 c77 38
130 92 167 171 l26 56 0 885 0 885 -26 56 c-37 79 -90 133 -167 171 l-67 33
-720 2 c-576 2 -728 -1 -762 -11z m1431 -302 c14 -14 16 -103 16 -834 0 -731
-2 -820 -16 -834 -14 -14 -90 -16 -684 -16 -594 0 -670 2 -684 16 -14 14 -16
103 -16 834 0 731 2 820 16 834 14 14 90 16 684 16 594 0 670 -2 684 -16z"/>
<path d="M3854 4511 c-55 -24 -54 -16 -54 -543 l0 -487 24 -28 c20 -23 32 -28
69 -28 88 0 107 43 107 248 l0 137 88 0 c190 0 305 62 380 204 24 45 27 62 27
151 0 84 -4 107 -23 147 -37 74 -96 134 -170 170 l-67 33 -180 2 c-99 2 -190
-1 -201 -6z m362 -212 c57 -27 84 -72 84 -137 0 -44 -5 -57 -32 -88 -45 -51
-82 -64 -183 -64 l-85 0 0 155 0 155 87 0 c67 0 96 -5 129 -21z"/>
<path d="M1023 3085 c-150 -33 -291 -144 -360 -283 -24 -47 -76 -201 -133
-394 l-95 -318 -62 -21 c-157 -52 -282 -177 -345 -345 -22 -57 -22 -72 -26
-531 -3 -460 -3 -473 18 -512 24 -49 81 -81 140 -81 l40 0 0 -95 c0 -172 37
-272 135 -370 212 -213 570 -161 708 102 43 85 57 148 57 268 l0 95 650 0 650
0 0 -95 c0 -172 37 -272 135 -370 212 -213 570 -161 708 102 43 85 57 148 57
268 l0 95 40 0 c59 0 116 32 140 81 21 39 21 52 18 512 -4 459 -4 474 -26 531
-63 168 -188 293 -345 345 l-62 21 -95 318 c-57 193 -109 347 -133 394 -70
141 -210 251 -364 283 -96 21 -1356 20 -1450 0z m1437 -309 c46 -24 88 -64
108 -101 9 -16 52 -151 97 -300 l82 -270 -499 -3 c-274 -1 -722 -1 -996 0
l-499 3 82 270 c45 149 87 281 94 295 29 55 86 101 151 121 14 4 322 7 685 6
623 -2 662 -3 695 -21z m575 -993 c95 -32 165 -134 165 -240 l0 -43 -140 0
c-166 0 -206 -13 -240 -80 -25 -50 -25 -90 0 -140 34 -67 74 -80 240 -80 l140
0 0 -150 0 -150 -1450 0 -1450 0 0 150 0 150 140 0 c166 0 206 13 240 80 25
50 25 90 0 140 -34 67 -74 80 -240 80 l-140 0 0 43 c0 67 28 136 75 182 78 78
-18 73 1371 74 1130 1 1245 0 1289 -16z m-2235 -1273 c0 -112 -20 -159 -80
-190 -51 -26 -93 -25 -142 2 -60 34 -78 78 -78 188 l0 90 150 0 150 0 0 -90z
m2200 0 c0 -112 -20 -159 -80 -190 -51 -26 -93 -25 -142 2 -60 34 -78 78 -78
188 l0 90 150 0 150 0 0 -90z"/>
<path d="M1278 1479 c-43 -22 -78 -81 -78 -129 0 -50 35 -107 80 -130 37 -19
58 -20 470 -20 412 0 433 1 470 20 45 23 80 80 80 130 0 50 -35 107 -80 130
-38 19 -58 20 -472 20 -411 -1 -435 -2 -470 -21z"/>
</g>
</svg>
